<svg xmlns="http://www.w3.org/2000/svg" version="1.1" xmlns:xlink="http://www.w3.org/1999/xlink" xmlns:svgjs="http://svgjs.dev/svgjs" width="1440" height="560" preserveAspectRatio="none" viewBox="0 0 1440 560"><g mask="url(&quot;#SvgjsMask3710&quot;)" fill="none"><rect width="1440" height="560" x="0" y="0" fill="url(&quot;#SvgjsLinearGradient3711&quot;)"></rect><path d="M1053.71 75.57L1101.28 75.57L1101.28 90.59L1053.71 90.59z" stroke="rgba(204, 0, 255, 1)"></path><path d="M22.13 219.22L58.36 219.22L58.36 255.45L22.13 255.45z" stroke="rgba(147, 184, 255, 1)"></path><path d="M1291.73 157.76L1341.89 157.76L1341.89 207.92L1291.73 207.92z" fill="rgba(231, 54, 53, 0.52)"></path><path d="M951.15 329.58L957.4 329.58L957.4 369.82L951.15 369.82z" stroke="rgba(147, 184, 255, 1)"></path><path d="M418.07 283.12L423.16 283.12L423.16 332.68L418.07 332.68z" stroke="rgba(231, 54, 53, 0.52)"></path><path d="M678.8 280.45L725.79 280.45L725.79 327.44L678.8 327.44z" fill="rgba(255, 0, 236, 1)"></path><path d="M816.83 437.35L868.11 437.35L868.11 488.63L816.83 488.63z" stroke="rgba(231, 54, 53, 0.52)"></path><path d="M1220.11 265.35L1224.38 265.35L1224.38 269.62L1220.11 269.62z" stroke="#037b0b"></path><path d="M1419.34 38.72L1448.82 38.72L1448.82 68.2L1419.34 68.2z" stroke="rgba(255, 0, 236, 1)"></path><path d="M931.57 23.77a7.19 7.19 0 1 0 6.56-12.8z" stroke="rgba(255, 0, 236, 1)"></path><path d="M246.71 24.57a2.55 2.55 0 1 0-4.48 2.44z" stroke="#037b0b"></path><path d="M250.54 182.24a44.47 44.47 0 1 0 14.1 87.81z" stroke="#037b0b"></path><path d="M1119.13 534.42a8.04 8.04 0 1 0 1.94-15.96z" stroke="#037b0b"></path><path d="M3.35 182.77L55.53 182.77L55.53 199.84L3.35 199.84z" fill="rgba(231, 54, 53, 0.52)"></path><path d="M375.07 522.36a14.93 14.93 0 1 0 13.53-26.61z" stroke="rgba(147, 184, 255, 1)"></path><path d="M1081.56 132.47L1085.42 132.47L1085.42 185.41L1081.56 185.41z" fill="rgba(147, 184, 255, 1)"></path><path d="M302.95 467.37 a8.97 8.97 0 1 0 17.94 0 a8.97 8.97 0 1 0 -17.94 0z" fill="rgba(147, 184, 255, 1)"></path><path d="M1058.28 175.74L1066.12 175.74L1066.12 205L1058.28 205z" stroke="#037b0b"></path><path d="M1222.34 417.2a45.06 45.06 0 1 0-60.41-66.88z" stroke="rgba(204, 0, 255, 1)"></path><path d="M708.22 142.35 a51.69 51.69 0 1 0 103.38 0 a51.69 51.69 0 1 0 -103.38 0z" stroke="rgba(147, 184, 255, 1)"></path><path d="M373.26 145.19 a48 48 0 1 0 96 0 a48 48 0 1 0 -96 0z" stroke="rgba(147, 184, 255, 1)"></path><path d="M160.8 395.68a50.22 50.22 0 1 0 5.94-100.26z" fill="rgba(204, 0, 255, 1)"></path><path d="M272.73 87.26L293.67 87.26L293.67 108.2L272.73 108.2z" stroke="rgba(255, 0, 236, 1)"></path><path d="M259.78 533.22L263.96 533.22L263.96 541.22L259.78 541.22z" fill="#037b0b"></path><path d="M528.56 199.43L578.26 199.43L578.26 227.96L528.56 227.96z" stroke="#037b0b"></path><path d="M630.28 489.08a53.21 53.21 0 1 0-82.28 67.49z" fill="rgba(147, 184, 255, 1)"></path><path d="M965.69 254.38a45.66 45.66 0 1 0 75.33 51.62z" fill="rgba(204, 0, 255, 1)"></path><path d="M657.86 267.43L694.29 267.43L694.29 297.87L657.86 297.87z" stroke="rgba(231, 54, 53, 0.52)"></path><path d="M2.1 265.45L52.86 265.45L52.86 316.21L2.1 316.21z" stroke="rgba(255, 0, 236, 1)"></path><path d="M1034.24 311.01L1071.11 311.01L1071.11 347.88L1034.24 347.88z" fill="rgba(255, 0, 236, 1)"></path><path d="M548.84 310.43L592.9 310.43L592.9 354.49L548.84 354.49z" stroke="rgba(231, 54, 53, 0.52)"></path><path d="M232.9 342.81L273.43 342.81L273.43 361.1L232.9 361.1z" stroke="rgba(147, 184, 255, 1)"></path><path d="M505.6 394L541.33 394L541.33 429.73L505.6 429.73z" stroke="rgba(204, 0, 255, 1)"></path></g><defs><mask id="SvgjsMask3710"><rect width="1440" height="560" fill="#ffffff"></rect></mask><linearGradient x1="84.72%" y1="139.29%" x2="15.28%" y2="-39.29%" gradientUnits="userSpaceOnUse" id="SvgjsLinearGradient3711"><stop stop-color="rgba(187, 217, 248, 1)" offset="0.03"></stop><stop stop-color="rgba(215, 147, 255, 1)" offset="0.28"></stop><stop stop-color="rgba(170, 147, 255, 1)" offset="0.55"></stop><stop stop-color="rgba(118, 159, 227, 1)" offset="0.71"></stop><stop stop-color="rgba(213, 208, 159, 1)" offset="1"></stop></linearGradient></defs></svg>